<svg xmlns="http://www.w3.org/2000/svg" width="141.139" height="33.043">
    <defs>
        <style>
            .cls-1{fill:#3e4042}.cls-2{fill:#25509b;fill-rule:evenodd}
        </style>
    </defs>
    <g id="Group_1" data-name="Group 1" transform="translate(-1120.983 -69.078)">
        <g id="Group_53" data-name="Group 53" transform="translate(1120.983 69.078)">
            <g id="Group_51" data-name="Group 51" transform="translate(65.563 3.333)">
                <g id="Group_49" data-name="Group 49" transform="translate(0 .492)">
                    <path id="Path_67" data-name="Path 67" class="cls-1" d="M1222.12 93.99V92.9h3.219c-.493-1.477-.985-2.971-1.477-4.448a32.44 32.44 0 0 0-1.706-4.291l-.036-.035v-2.674a2 2 0 0 1 .334-.018c.809 0 1.46.668 1.952 2.022l5.434 15.175h-2.48l-1.671-4.641zm-29.787-17.865v22.506h-1.513V73.152h3.307l8.264 20.749 8.317-20.749h3.1v25.479h-2.62v-23.14l-9.488 23.774-9.372-23.14zm29.787 5.328v2.673a.645.645 0 0 0-.316-.159c-.264 0-.492.37-.685 1.091L1218.9 92.9h3.217v1.09h-3.587l-1.424 4.641h-1.09l4.642-15.6a1.921 1.921 0 0 1 1.462-1.579z" transform="translate(-1190.82 -73.152)"/>
                    <path id="Path_68" data-name="Path 68" class="cls-1" d="M1192.333 76.124v22.507h-1.513V73.152h3.307l8.264 20.749 8.317-20.749h3.1v25.479h-2.62v-23.14l-9.488 23.774-9.372-23.14zm24.776 22.507h-1.09l4.642-15.6c.317-1.073.915-1.6 1.793-1.6.809 0 1.46.668 1.952 2.022l5.434 15.175h-2.48l-1.671-4.641h-7.157l-1.424 4.641zm1.791-5.731h6.436c-.493-1.477-.985-2.971-1.477-4.448a32.44 32.44 0 0 0-1.706-4.291c-.159-.123-.264-.193-.352-.193-.264 0-.492.37-.685 1.091z" transform="translate(-1190.82 -73.152)"/>
                </g>
                <g id="Group_50" data-name="Group 50" transform="translate(34.043)">
                    <path id="Path_69" data-name="Path 69" class="cls-1" d="m1237.826 99.233-10.744-26.113h2.884l8.458 20.855 8.458-20.855h1.6l-10.656 26.113zm13.434-17.321h2.251V98.6h-2.251V81.912zm-1.249-2.62 4.1-6.664h2.5l-5.082 6.664zm10.639 18.217h7.966V98.6h-10.849L1264.8 83h-7.034v-1.088h6.629c1.652 0 2.462.4 2.462 1.249 0 .6-.915 2.919-2.761 6.981-1.143 2.444-2.285 4.905-3.446 7.367z" transform="translate(-1227.082 -72.628)"/>
                    <path id="Path_70" data-name="Path 70" class="cls-1" d="m1237.826 99.233-10.744-26.113h2.884l8.458 20.855 8.458-20.855h1.6l-10.656 26.113zm13.434-17.321h2.251V98.6h-2.251V81.912zm-1.249-2.62 4.1-6.664h2.5l-5.082 6.664zm10.639 18.217h7.966V98.6h-10.849L1264.8 83h-7.034v-1.088h6.629c1.652 0 2.462.4 2.462 1.249 0 .6-.915 2.919-2.761 6.981-1.143 2.444-2.285 4.905-3.446 7.367z" transform="translate(-1227.082 -72.628)"/>
                </g>
            </g>
            <g id="Group_52" data-name="Group 52">
                <path id="Path_71" data-name="Path 71" class="cls-2" d="M1150.571 82.593c5.978-.013 13.743-7.751 19.6-7.531a18.821 18.821 0 0 1 9.991 3.5v-5.7c0-.083-3.573-3.518-10.142-3.779s-11.572 6.61-19.446 7.49c-7.847-.88-12.849-7.738-19.418-7.49S1121 72.781 1121 72.863l.014 5.7a18.822 18.822 0 0 1 9.991-3.5c5.851-.221 13.616 7.517 19.566 7.53z" transform="translate(-1120.984 -69.078)"/>
                <path id="Path_72" data-name="Path 72" class="cls-2" d="M1150.571 93.074c5.978-.013 13.743-7.751 19.6-7.531a18.83 18.83 0 0 1 9.991 3.5v-5.7c0-.083-3.573-3.518-10.142-3.779s-11.572 6.61-19.446 7.49c-7.847-.88-12.849-7.738-19.418-7.49S1121 83.262 1121 83.344l.014 5.7a18.831 18.831 0 0 1 9.991-3.5c5.851-.221 13.616 7.517 19.566 7.53z" transform="translate(-1120.984 -69.719)"/>
                <path id="Path_73" data-name="Path 73" class="cls-2" d="M1150.57 103.395c5.951 0 13.716-7.751 19.569-7.53a18.644 18.644 0 0 1 9.992 3.518l.013-5.717c0-.082-3.573-3.518-10.156-3.766s-11.571 6.6-19.418 7.49c-7.875-.893-12.862-7.751-19.445-7.49s-10.142 3.684-10.142 3.766v5.717a18.636 18.636 0 0 1 9.991-3.518c5.854-.221 13.619 7.53 19.596 7.53z" transform="translate(-1120.983 -70.352)"/>
            </g>
        </g>
    </g>
</svg>
